<svg width="29" height="32" viewBox="0 0 29 32" fill="none" xmlns="http://www.w3.org/2000/svg">
<path d="M27 21.521V10.3645C26.9995 9.87538 26.8709 9.395 26.6271 8.97155C26.3834 8.5481 26.033 8.19646 25.6111 7.9519L15.8889 2.37367C15.4666 2.12887 14.9876 2 14.5 2C14.0124 2 13.5334 2.12887 13.1111 2.37367L3.38889 7.9519C2.96703 8.19646 2.61664 8.5481 2.37286 8.97155C2.12909 9.395 2.0005 9.87538 2 10.3645V21.521C2.0005 22.0101 2.12909 22.4904 2.37286 22.9139C2.61664 23.3373 2.96703 23.689 3.38889 23.9335L13.1111 29.5118C13.5334 29.7566 14.0124 29.8854 14.5 29.8854C14.9876 29.8854 15.4666 29.7566 15.8889 29.5118L25.6111 23.9335C26.033 23.689 26.3834 23.3373 26.6271 22.9139C26.8709 22.4904 26.9995 22.0101 27 21.521Z" stroke="black" stroke-width="2.5" stroke-linecap="round" stroke-linejoin="round"/>
<path d="M2.375 8.914L14.5 15.9565L26.625 8.914" stroke="black" stroke-width="2.5" stroke-linecap="round" stroke-linejoin="round"/>
<path d="M14.5 30.0001V15.9429" stroke="black" stroke-width="2.5" stroke-linecap="round" stroke-linejoin="round"/>
</svg>
