<svg width="24" height="24" viewBox="0 0 24 24" fill="none" xmlns="http://www.w3.org/2000/svg">
<path d="M21.9399 7.87614C21.9233 7.04661 21.7662 6.2259 21.4752 5.44888C21.2247 4.78201 20.8317 4.17778 20.3237 3.67827C19.8237 3.16934 19.2186 2.77567 18.5507 2.52473C17.7736 2.23378 16.9528 2.07667 16.1232 2.0601C15.0568 2.01173 14.7159 2 12.0004 2C9.28479 2 8.94323 2.01173 7.87679 2.0601C7.04742 2.07679 6.22687 2.2339 5.44999 2.52473C4.78259 2.77581 4.17801 3.16948 3.67845 3.67827C3.16972 4.17758 2.77601 4.78182 2.52479 5.44888C2.23381 6.2259 2.07669 7.04661 2.0601 7.87614C2.01173 8.94247 2 9.28325 2 11.9985C2 14.7138 2.01173 15.0546 2.0601 16.1209C2.07666 16.9505 2.23379 17.7712 2.52479 18.5482C2.77559 19.2163 3.16932 19.8216 3.67845 20.3217C4.17798 20.8306 4.78257 21.2242 5.44999 21.4753C6.22707 21.7663 7.04789 21.9234 7.87752 21.9399C8.94397 21.9883 9.28479 22 12.0004 22C14.7159 22 15.0568 21.9883 16.1232 21.9399C16.9528 21.9234 17.7737 21.7663 18.5507 21.4753C19.215 21.2184 19.8183 20.8256 20.3219 20.3221C20.8255 19.8185 21.2183 19.2153 21.4752 18.5511C21.7662 17.7741 21.9233 16.9534 21.9399 16.1239C21.9883 15.0575 22 14.7167 22 12.0015C22 9.28619 21.9883 8.94247 21.9399 7.87614ZM20.1398 16.0396C20.1322 16.6735 20.0156 17.3015 19.7953 17.8959C19.629 18.3272 19.3743 18.7189 19.0474 19.0459C18.7206 19.3728 18.329 19.6276 17.8977 19.7941C17.3031 20.0144 16.6751 20.1309 16.0411 20.1385C14.9871 20.1869 14.6705 20.1971 12.0004 20.1971C9.33023 20.1971 9.0136 20.1869 7.95961 20.1385C7.32609 20.1307 6.69861 20.0142 6.10452 19.7941C5.67009 19.6337 5.27712 19.378 4.95452 19.0458C4.62147 18.7235 4.36499 18.3305 4.20398 17.8959C3.98362 17.3015 3.8671 16.6735 3.85949 16.0396C3.81112 14.985 3.80086 14.6691 3.80086 11.9993C3.80086 9.32942 3.81112 9.01282 3.85949 7.95896C3.86734 7.32551 3.98386 6.6981 4.20398 6.10407C4.36412 5.66892 4.61985 5.27523 4.95232 4.952C5.27557 4.61971 5.66932 4.36424 6.10452 4.20447C6.69905 3.98411 7.32706 3.86759 7.96108 3.86002C9.0158 3.81165 9.3317 3.80139 12.0018 3.80139C14.672 3.80139 14.9886 3.81165 16.0426 3.86002C16.6766 3.86764 17.3046 3.98415 17.8991 4.20447C18.3336 4.36488 18.7265 4.62056 19.0491 4.95273C19.3808 5.27588 19.6358 5.66932 19.7953 6.10407C20.0157 6.69852 20.1323 7.32646 20.1398 7.96042C20.1881 9.01502 20.1984 9.33089 20.1984 12.0007C20.1984 14.6706 20.1881 14.985 20.1398 16.0396Z" fill="#AAAAAA"/>
<path d="M12 7C11.0111 7 10.0444 7.29325 9.22215 7.84265C8.3999 8.39206 7.75904 9.17295 7.3806 10.0866C7.00217 11.0002 6.90315 12.0055 7.09608 12.9755C7.289 13.9454 7.7652 14.8363 8.46447 15.5355C9.16373 16.2348 10.0546 16.711 11.0245 16.9039C11.9945 17.0969 12.9998 16.9978 13.9134 16.6194C14.827 16.241 15.6079 15.6001 16.1573 14.7779C16.7068 13.9556 17 12.9889 17 12C17 10.6739 16.4732 9.40215 15.5355 8.46447C14.5979 7.52678 13.3261 7 12 7ZM12 15.2458C11.358 15.2458 10.7305 15.0554 10.1967 14.6988C9.66297 14.3421 9.24695 13.8352 9.00128 13.2421C8.75561 12.649 8.69134 11.9964 8.81658 11.3668C8.94182 10.7372 9.25094 10.1588 9.70488 9.70487C10.1588 9.25094 10.7372 8.94182 11.3668 8.81658C11.9964 8.69134 12.649 8.75561 13.2421 9.00128C13.8352 9.24694 14.3421 9.66297 14.6988 10.1967C15.0554 10.7305 15.2458 11.358 15.2458 12C15.2458 12.8608 14.9038 13.6864 14.2951 14.2951C13.6864 14.9038 12.8608 15.2458 12 15.2458Z" fill="#AAAAAA"/>
<path d="M18.25 7C18.25 7.24723 18.1767 7.4889 18.0393 7.69446C17.902 7.90003 17.7068 8.06024 17.4783 8.15485C17.2499 8.24946 16.9986 8.27421 16.7561 8.22598C16.5137 8.17775 16.2909 8.0587 16.1161 7.88388C15.9413 7.70907 15.8223 7.48634 15.774 7.24386C15.7258 7.00138 15.7505 6.75005 15.8451 6.52164C15.9398 6.29324 16.1 6.09802 16.3055 5.96066C16.5111 5.82331 16.7528 5.75 17 5.75C17.3315 5.75 17.6494 5.8817 17.8839 6.11612C18.1183 6.35054 18.25 6.66848 18.25 7Z" fill="#AAAAAA"/>
</svg>
