<svg width="32" height="32" viewBox="0 0 32 32" fill="none" xmlns="http://www.w3.org/2000/svg">
<path d="M8.16667 2L4 7.6V27.2C4 27.9426 4.29266 28.6548 4.81359 29.1799C5.33453 29.705 6.04107 30 6.77778 30H26.2222C26.9589 30 27.6655 29.705 28.1864 29.1799C28.7073 28.6548 29 27.9426 29 27.2V7.6L24.8333 2H8.16667Z" stroke="#00CC96" stroke-width="2.5" stroke-linecap="round" stroke-linejoin="round"/>
<path d="M4 7.6001H29" stroke="#00CC96" stroke-width="2.5" stroke-linecap="round" stroke-linejoin="round"/>
<path d="M22.0556 13.2C22.0556 14.6852 21.4703 16.1095 20.4284 17.1597C19.3865 18.21 17.9734 18.8 16.5 18.8C15.0266 18.8 13.6135 18.21 12.5716 17.1597C11.5298 16.1095 10.9445 14.6852 10.9445 13.2" stroke="#00CC96" stroke-width="2.5" stroke-linecap="round" stroke-linejoin="round"/>
</svg>
